<svg width="54" height="54" viewBox="0 0 54 54" fill="none" xmlns="http://www.w3.org/2000/svg">
<g filter="url(#filter0_d)">
<path d="M27 50C40.8071 50 52 38.8071 52 25C52 11.1929 40.8071 0 27 0C13.1929 0 2 11.1929 2 25C2 38.8071 13.1929 50 27 50Z" fill="white"/>
</g>
<path d="M17.0239 24.9806C16.9663 26.5819 17.2703 28.1755 17.9132 29.6432C18.556 31.1109 19.5213 32.4149 20.7373 33.4583L20.6247 36.6833C18.6355 35.4411 17.0086 33.6969 15.9079 31.6261C14.8071 29.5553 14.2713 27.2311 14.3544 24.8874L17.0239 24.9806ZM28.1694 12.0046C31.4785 12.1204 34.6267 13.4611 37.0033 15.7666C39.3798 18.0721 40.8154 21.1782 41.0315 24.4822L38.346 24.3885C38.158 22.317 37.3695 20.3455 36.0774 18.7155C34.7853 17.0856 33.0456 15.8681 31.0717 15.2124C29.0978 14.5567 26.9754 14.4913 24.9649 15.0241C22.9543 15.5569 21.1429 16.6649 19.7528 18.2121L22.5021 21.1624L14.4942 20.8828L14.7739 12.8735L17.927 16.2549C19.2293 14.853 20.8181 13.7478 22.5854 13.0144C24.3527 12.281 26.2572 11.9366 28.1694 12.0046V12.0046Z" fill="#E80013"/>
<path d="M28.0007 37.3904L21.7218 37.1712L21.9832 35.8205L25.4395 32.7983C25.982 32.3613 26.4602 31.85 26.86 31.2796C27.0867 30.934 27.1902 30.522 27.1536 30.1103C27.1475 29.878 27.0497 29.6576 26.8817 29.4972C26.7136 29.3368 26.4889 29.2494 26.2566 29.2541C26.0625 29.2388 25.8674 29.2664 25.6851 29.3351C25.5029 29.4038 25.3381 29.5118 25.2024 29.6515C24.9002 29.9672 24.7077 30.3719 24.6534 30.8055L22.8281 30.7482C22.8766 30.1781 23.0769 29.6314 23.408 29.1649C23.7381 28.6994 24.186 28.3301 24.7058 28.0948C25.2417 27.8483 25.8292 27.7353 26.4183 27.7652C27.1712 27.7624 27.8956 28.0527 28.4381 28.5747C28.6744 28.8293 28.8496 29.1345 28.9502 29.467C29.0509 29.7995 29.0744 30.1506 29.0189 30.4936C28.8063 31.5727 28.2138 32.5399 27.349 33.2196L26.386 34.0737L24.3971 35.7412L28.2936 35.8901L28.0007 37.3904ZM35.2253 34.0912L36.2613 34.1274L35.9434 35.6262L34.9075 35.59L34.4801 37.6167L32.6549 37.553L33.0823 35.5263L29.3384 35.3955L29.5111 34.1251L34.5337 28.1827L36.4434 28.2494L35.2253 34.0912ZM31.4198 33.9455L33.4002 34.0275L34.1579 30.6968L33.9813 30.9241L31.4198 33.9455ZM39.457 31.5495C39.7132 31.274 40.0264 31.0575 40.3748 30.9153C40.7231 30.773 41.0983 30.7084 41.4742 30.7258C41.7607 30.7203 42.044 30.7869 42.2981 30.9196C42.5521 31.0522 42.7687 31.2465 42.9281 31.4847C43.2534 32.0718 43.3572 32.7562 43.2205 33.4134L42.3125 37.8902L40.7781 37.8366L41.6998 33.3385C41.727 33.1675 41.7373 32.9943 41.7307 32.8213C41.7314 32.7052 41.708 32.5903 41.662 32.4837C41.616 32.3771 41.5484 32.2813 41.4634 32.2021C41.3785 32.123 41.278 32.0624 41.1685 32.0241C41.0589 31.9858 40.9425 31.9707 40.8268 31.9796C40.5231 31.9766 40.2232 32.0466 39.9522 32.1839C39.6813 32.3211 39.4474 32.5215 39.2701 32.7681L38.2214 37.7474L36.6877 37.6938L38.7563 27.8112L40.2938 27.8649L39.457 31.5495Z" fill="#E80013"/>
<defs>
<filter id="filter0_d" x="0" y="0" width="54" height="54" filterUnits="userSpaceOnUse" color-interpolation-filters="sRGB">
<feFlood flood-opacity="0" result="BackgroundImageFix"/>
<feColorMatrix in="SourceAlpha" type="matrix" values="0 0 0 0 0 0 0 0 0 0 0 0 0 0 0 0 0 0 127 0" result="hardAlpha"/>
<feOffset dy="2"/>
<feGaussianBlur stdDeviation="1"/>
<feColorMatrix type="matrix" values="0 0 0 0 0 0 0 0 0 0 0 0 0 0 0 0 0 0 0.161 0"/>
<feBlend mode="normal" in2="BackgroundImageFix" result="effect1_dropShadow"/>
<feBlend mode="normal" in="SourceGraphic" in2="effect1_dropShadow" result="shape"/>
</filter>
</defs>
</svg>
