<svg width="54" height="54" viewBox="0 0 54 54" fill="none" xmlns="http://www.w3.org/2000/svg">
<g filter="url(#filter0_d)">
<path d="M27 50C40.8071 50 52 38.8071 52 25C52 11.1929 40.8071 0 27 0C13.1929 0 2 11.1929 2 25C2 38.8071 13.1929 50 27 50Z" fill="white"/>
</g>
<path d="M14.1795 34.4757C14.4603 33.2616 14.7345 32.0705 15.0127 30.8801C15.185 30.0896 15.6617 29.3987 16.3397 28.9571C17.2389 28.3471 18.1949 27.8253 19.1942 27.3988C20.2942 26.9571 21.4756 26.718 22.6199 26.3847C22.9244 26.2962 23.0858 26.3846 23.2243 26.6859C24.1025 28.6007 25.0039 30.5045 25.8981 32.4116C25.9724 32.5693 26.0525 32.7244 26.1936 33.009C26.3859 32.1013 26.5781 31.3231 26.6903 30.5327C26.7191 30.3314 26.4903 30.0904 26.3698 29.8718C26.207 29.575 26.0358 29.2827 25.8364 28.934L27.3398 27.5404L28.8429 28.9327C28.5865 29.3814 28.3435 29.7975 28.114 30.2232C28.0326 30.3421 27.9895 30.4829 27.9903 30.6269C28.1314 31.3763 28.3013 32.1199 28.4904 32.9988C28.6224 32.7366 28.6987 32.5917 28.7686 32.443C29.6763 30.5096 30.5819 28.5752 31.4858 26.6398C31.5826 26.4314 31.6654 26.3001 31.9346 26.3571C33.8986 26.6958 35.7885 27.3739 37.5198 28.361C38.0372 28.6716 38.505 29.0582 38.9076 29.5077C39.2507 29.9087 39.504 30.3784 39.6506 30.8853C39.982 32.0597 40.2191 33.2609 40.4993 34.4712C31.7326 38.5114 22.9594 38.5128 14.1795 34.4757ZM31.223 32.4648C31.223 32.8276 31.2192 33.2526 31.223 33.6776C31.2366 34.0692 31.3725 34.4467 31.6116 34.7571C31.8507 35.0675 32.1812 35.2953 32.5564 35.4084C32.6234 35.4324 32.6961 35.4351 32.7647 35.4161C33.0931 35.3248 33.3901 35.145 33.6233 34.8963C33.8564 34.6475 34.0167 34.3395 34.0865 34.0058C34.1254 33.4907 34.1298 32.9735 34.1 32.4577L32.6821 31.8718L31.223 32.4648ZM17.6544 30.0814C17.7256 30.0745 17.7963 30.0632 17.866 30.0475C18.7211 29.7007 19.5833 29.368 20.4301 28.9962C20.7301 28.8641 20.6384 28.5891 20.5339 28.3455C20.4339 28.1128 20.3026 27.8968 20.0148 28.0051C19.166 28.3301 18.3211 28.6661 17.4929 29.0385C17.3801 29.0892 17.2961 29.3904 17.3327 29.5443C17.4091 29.7401 17.5178 29.9217 17.6544 30.0814V30.0814ZM37.0026 30.1109C37.1614 29.9215 37.2861 29.7059 37.3711 29.4737C37.3664 29.3751 37.3372 29.2792 37.2865 29.1946C37.2357 29.1099 37.1648 29.0391 37.08 28.9885C36.348 28.6533 35.5903 28.3751 34.8493 28.0597C34.4794 27.9026 34.282 28.018 34.1333 28.3731C34.0901 28.4375 34.0635 28.5117 34.056 28.589C34.0485 28.6662 34.0601 28.7442 34.0901 28.8157C34.1201 28.8873 34.1675 28.9503 34.2278 28.9992C34.2881 29.048 34.3595 29.0812 34.4358 29.0956C35.1717 29.3853 35.9032 29.6885 36.6365 29.9846C36.7173 30.0167 36.8013 30.0411 37.0026 30.1109V30.1109Z" fill="#E80013"/>
<path d="M27.3532 18.0301C25.465 18.0316 23.5839 17.7984 21.7532 17.3359C21.5179 17.2718 21.3686 17.191 21.3161 16.923C21.2724 16.7558 21.179 16.6059 21.0481 16.493C20.6892 16.1654 20.3019 15.8685 19.9372 15.5467C19.8095 15.4616 19.7073 15.3433 19.6415 15.2046C19.5758 15.0659 19.5489 14.9119 19.5637 14.7592C19.5786 14.6064 19.6348 14.4605 19.726 14.3371C19.8173 14.2137 19.9403 14.1172 20.0821 14.0583C22.3455 12.857 24.6115 11.6583 26.8948 10.4942C27.0388 10.4339 27.1936 10.4035 27.3496 10.4051C27.5057 10.4066 27.6598 10.44 27.8025 10.5032C30.0724 11.6609 32.3244 12.8532 34.5764 14.0455C34.7228 14.1027 34.8506 14.1992 34.9457 14.3244C35.0408 14.4496 35.0994 14.5985 35.1153 14.7549C35.1312 14.9113 35.1038 15.0691 35.0358 15.2108C34.9679 15.3526 34.8621 15.4728 34.7302 15.5583C34.4199 15.8308 34.0802 16.0711 33.7898 16.3621C33.6032 16.5487 33.4974 16.8141 33.325 17.0186C33.217 17.1588 33.0719 17.2656 32.9059 17.3269C31.093 17.799 29.2266 18.0354 27.3532 18.0301V18.0301ZM26.5462 15.1955C27.0141 15.1404 27.1096 15.5263 27.2025 15.925C27.2186 15.993 27.2917 16.048 27.3379 16.1083C27.3885 16.064 27.47 16.0282 27.4847 15.9743C27.677 15.266 27.6448 15.0519 28.625 15.2903C28.6935 15.2923 28.7619 15.2814 28.8264 15.2583C28.8027 15.1846 28.7987 15.091 28.7506 15.0404C28.2077 14.4724 28.2033 14.2609 28.7264 13.7436C28.7726 13.6818 28.8095 13.6135 28.8359 13.541C28.7526 13.5175 28.6661 13.5073 28.5796 13.5108C27.7924 13.6724 27.7276 13.6019 27.4737 12.8801C27.4361 12.801 27.3896 12.7264 27.3352 12.6577C27.2812 12.7266 27.238 12.8033 27.2071 12.8852C27.1999 13.009 27.1628 13.1291 27.0988 13.2353C27.0348 13.3415 26.9458 13.4305 26.8398 13.4946C26.7337 13.5588 26.6137 13.5962 26.49 13.6036C26.3662 13.611 26.2425 13.5882 26.1296 13.5371C26.0344 13.5224 25.9375 13.5224 25.8424 13.5371C25.8824 13.6177 25.9319 13.6933 25.9898 13.7622C26.3584 14.1141 26.4166 14.3737 26.1878 14.748C26.082 14.9205 25.9635 15.0846 25.8513 15.2525L26.5462 15.1955Z" fill="#E80013"/>
<path d="M27.2249 26.9238C26.4601 26.8866 25.7132 26.6802 25.0379 26.3192C24.3627 25.9583 23.7761 25.4519 23.3203 24.8366C22.6836 24.0281 22.1987 23.111 21.889 22.1295C21.8381 22.0159 21.7703 21.9106 21.6877 21.8174C21.4999 21.5693 21.1884 21.3475 21.1397 21.077C21.0087 20.4463 20.9727 19.7997 21.0326 19.1584C21.1516 18.7313 21.366 18.3368 21.6596 18.0046C21.7179 17.9219 21.9915 17.9449 22.1499 17.984C23.9919 18.4661 25.8968 18.6641 27.7986 18.5712C29.3371 18.4757 30.8634 18.218 32.3922 18.009C32.545 17.9549 32.7119 17.9559 32.8641 18.0117C33.0162 18.0675 33.144 18.1747 33.2256 18.3148C33.9948 19.2827 33.7338 20.2462 33.4954 21.2385C33.4454 21.4494 33.196 21.6116 33.0409 21.7981C32.9405 21.8912 32.857 22.0009 32.7941 22.1225C32.4479 23.269 31.848 24.3228 31.0389 25.2058C30.5599 25.7444 29.9725 26.1758 29.3152 26.4719C28.658 26.7679 27.9457 26.9219 27.2249 26.9238V26.9238ZM33.0223 21.0828C33.0434 20.4494 33.0711 19.8982 33.073 19.3469C33.068 19.2929 33.0495 19.2411 33.0191 19.1962C32.9888 19.1514 32.9475 19.115 32.8993 19.0905C32.8405 19.0848 32.7812 19.0923 32.7257 19.1124C32.6702 19.1326 32.6201 19.165 32.5788 19.2071C31.9958 19.9003 31.2061 20.3887 30.3255 20.6007C28.8591 21.0066 27.3247 21.1054 25.8184 20.8911C24.3934 20.7161 23.0371 20.3648 22.0737 19.1603C22.0431 19.1133 21.9976 19.078 21.9446 19.0599C21.8915 19.0417 21.8339 19.0419 21.781 19.0603C21.7281 19.0788 21.6828 19.1145 21.6525 19.1617C21.6222 19.2088 21.6088 19.2648 21.614 19.3206C21.5999 19.8834 21.6422 20.4481 21.6639 21.0821C22.1909 20.8859 22.2928 21.1462 22.3652 21.4668C22.6675 22.9204 23.4378 24.2348 24.5583 25.209C25.3116 25.9114 26.3024 26.3036 27.3324 26.3068C28.3624 26.31 29.3557 25.9241 30.1134 25.2264C31.227 24.2477 31.9981 22.9383 32.314 21.4898C32.3954 21.1641 32.4832 20.8783 33.0223 21.0828V21.0828Z" fill="#E80013"/>
<defs>
<filter id="filter0_d" x="0" y="0" width="54" height="54" filterUnits="userSpaceOnUse" color-interpolation-filters="sRGB">
<feFlood flood-opacity="0" result="BackgroundImageFix"/>
<feColorMatrix in="SourceAlpha" type="matrix" values="0 0 0 0 0 0 0 0 0 0 0 0 0 0 0 0 0 0 127 0" result="hardAlpha"/>
<feOffset dy="2"/>
<feGaussianBlur stdDeviation="1"/>
<feColorMatrix type="matrix" values="0 0 0 0 0 0 0 0 0 0 0 0 0 0 0 0 0 0 0.161 0"/>
<feBlend mode="normal" in2="BackgroundImageFix" result="effect1_dropShadow"/>
<feBlend mode="normal" in="SourceGraphic" in2="effect1_dropShadow" result="shape"/>
</filter>
</defs>
</svg>
