<svg width="54" height="54" viewBox="0 0 54 54" fill="none" xmlns="http://www.w3.org/2000/svg">
<g filter="url(#filter0_d)">
<path d="M27 50C40.8071 50 52 38.8071 52 25C52 11.1929 40.8071 0 27 0C13.1929 0 2 11.1929 2 25C2 38.8071 13.1929 50 27 50Z" fill="white"/>
</g>
<path d="M36.0961 20.8583C36.18 22.3588 36.4344 23.8449 36.8545 25.2878C37.2901 26.8081 37.5447 28.3745 37.6128 29.9545C37.6689 31.5245 37.1604 33.0626 36.1795 34.2898C35.7114 34.8578 35.1181 35.3096 34.4461 35.6099C33.7742 35.9102 33.0418 36.0507 32.3064 36.0205C31.6804 36.0197 31.0591 36.1282 30.4705 36.341C29.94 36.5227 29.4377 36.778 28.9782 37.0994C28.602 37.3693 28.2457 37.666 27.9122 37.9872C27.6659 38.2195 27.4363 38.4689 27.225 38.7333C27.1406 38.8333 27.0653 38.9405 27 39.0539C26.9308 38.943 26.8557 38.836 26.775 38.7333C26.672 38.5992 26.447 38.3543 26.1 37.9987C25.7677 37.6561 25.4027 37.3467 25.0102 37.075C24.5521 36.775 24.0589 36.5324 23.5416 36.3526C22.9504 36.1332 22.3248 36.021 21.6942 36.0212C20.9588 36.0512 20.2265 35.9105 19.5546 35.6103C18.8826 35.31 18.2893 34.8582 17.8211 34.2904C16.8396 33.0635 16.3308 31.5253 16.3872 29.9551C16.4553 28.3752 16.7099 26.8088 17.1455 25.2885C17.5653 23.8453 17.8195 22.359 17.9032 20.8583C17.9251 19.9616 17.8092 19.0668 17.5596 18.2051C17.3271 17.4883 16.9248 16.8383 16.3872 16.3103C16.3878 16.2547 16.3918 16.1993 16.3993 16.1442C16.4221 16.0237 16.4538 15.905 16.4942 15.7891C16.5452 15.6245 16.6211 15.4686 16.7192 15.3269C16.8385 15.1715 16.992 15.0458 17.1679 14.9596C17.3957 14.8443 17.6486 14.7875 17.9038 14.7942C17.9197 15.1032 18.0091 15.4038 18.1647 15.6712C18.3607 16.0332 18.6036 16.3677 18.8872 16.666C19.2298 17.022 19.6416 17.3041 20.0974 17.4949C20.6011 17.7166 21.1458 17.8296 21.6961 17.8263C23.2773 17.8263 24.4312 17.55 25.1577 16.9975C25.5042 16.7463 25.7841 16.4143 25.9731 16.0303C26.1621 15.6464 26.2545 15.222 26.2423 14.7942H27.7583C27.747 15.2224 27.8404 15.6469 28.0303 16.0308C28.2202 16.4148 28.5009 16.7466 28.8481 16.9975C29.5746 17.5504 30.7284 17.8267 32.3096 17.8263C32.8599 17.8301 33.4048 17.7171 33.9083 17.4949C34.362 17.303 34.7719 17.021 35.1134 16.666C35.3975 16.3679 35.6405 16.0331 35.8359 15.6705C35.9909 15.4032 36.0803 15.1029 36.0968 14.7942C36.3493 14.7881 36.5997 14.841 36.8282 14.9487C37.0097 15.0317 37.1649 15.163 37.2769 15.3282C37.3674 15.4695 37.4428 15.6199 37.5019 15.7769C37.5483 15.8959 37.5839 16.0189 37.6083 16.1442V16.3103C37.0734 16.8396 36.6739 17.49 36.4436 18.2064C36.194 19.068 36.0781 19.9629 36.1 20.8596L36.0961 20.8583ZM28.8237 24.9333L26.9993 20.8583L25.1756 24.9327L20.9352 25.4994L24.0622 28.5763L23.257 32.9821L27 30.8026L30.7429 32.9821L29.9378 28.5763L33.0647 25.4994L28.8237 24.9333Z" fill="#E80013"/>
<defs>
<filter id="filter0_d" x="0" y="0" width="54" height="54" filterUnits="userSpaceOnUse" color-interpolation-filters="sRGB">
<feFlood flood-opacity="0" result="BackgroundImageFix"/>
<feColorMatrix in="SourceAlpha" type="matrix" values="0 0 0 0 0 0 0 0 0 0 0 0 0 0 0 0 0 0 127 0" result="hardAlpha"/>
<feOffset dy="2"/>
<feGaussianBlur stdDeviation="1"/>
<feColorMatrix type="matrix" values="0 0 0 0 0 0 0 0 0 0 0 0 0 0 0 0 0 0 0.161 0"/>
<feBlend mode="normal" in2="BackgroundImageFix" result="effect1_dropShadow"/>
<feBlend mode="normal" in="SourceGraphic" in2="effect1_dropShadow" result="shape"/>
</filter>
</defs>
</svg>
