<svg width="54" height="54" viewBox="0 0 54 54" fill="none" xmlns="http://www.w3.org/2000/svg">
<g filter="url(#filter0_d)">
<path d="M27 50C40.8071 50 52 38.8071 52 25C52 11.1929 40.8071 0 27 0C13.1929 0 2 11.1929 2 25C2 38.8071 13.1929 50 27 50Z" fill="white"/>
</g>
<path d="M27.5012 25C27.3721 25 27.0722 24.7365 26.6016 24.2094C26.1309 23.6823 25.8956 23.3471 25.8956 23.2038C25.8956 22.9741 26.0972 22.7804 26.5004 22.6228C26.8161 22.4848 27.1555 22.4046 27.5012 22.3864C27.847 22.4046 28.1863 22.4848 28.5021 22.6228C28.9053 22.7804 29.1069 22.9741 29.1069 23.2038C29.1069 23.3471 28.8716 23.6823 28.4009 24.2094C27.9302 24.7365 27.6304 25 27.5012 25ZM30.1101 22.0832C29.9756 22.0012 29.8462 21.9115 29.7227 21.8145C29.4165 21.6014 29.0872 21.4212 28.7408 21.2772C28.3519 21.0999 27.9274 21.0079 27.4977 21.0079C27.0679 21.0079 26.6435 21.0999 26.2545 21.2772C25.9095 21.421 25.5818 21.6012 25.2773 21.8145C25.1534 21.9144 25.0212 22.0043 24.882 22.0832C24.7661 22.0832 24.4646 21.8143 23.9776 21.2764C23.4906 20.7386 23.2477 20.406 23.2487 20.2786C23.2479 20.1874 23.2823 20.0992 23.3452 20.0314C23.8688 19.4637 24.5173 19.0177 25.2426 18.7265C25.9528 18.4214 26.7198 18.2605 27.4965 18.2537C28.273 18.2612 29.0399 18.4221 29.7504 18.7265C30.476 19.0172 31.1246 19.4632 31.6478 20.0314C31.7106 20.0992 31.7451 20.1874 31.7442 20.2786C31.7442 20.4075 31.5007 20.7401 31.0138 21.2764C30.5268 21.8127 30.2255 22.0827 30.1101 22.0862V22.0832ZM32.7506 19.1587C32.6688 19.1547 32.5907 19.1244 32.5285 19.0727C31.7947 18.4182 30.9749 17.8609 30.0904 17.4155C29.2806 17.0479 28.3949 16.8654 27.5012 16.882C26.9427 16.8835 26.3873 16.9631 25.8521 17.1184C25.3513 17.2559 24.8679 17.4472 24.4109 17.6887C24.0332 17.8918 23.6669 18.1142 23.3135 18.355C22.991 18.5771 22.7364 18.7672 22.5499 18.9253C22.4568 19.0122 22.3563 19.0913 22.2494 19.1617C22.1398 19.1617 21.8433 18.8928 21.36 18.355C20.8767 17.8172 20.6348 17.4845 20.6343 17.3571C20.6349 17.2694 20.6693 17.1851 20.7307 17.1207C21.5814 16.1731 22.6369 15.4194 23.8219 14.9131C24.9742 14.3957 26.2285 14.1277 27.4981 14.1277C28.7676 14.1277 30.022 14.3957 31.1742 14.9131C32.3602 15.4183 33.4167 16.1713 34.2685 17.1184C34.33 17.1828 34.3644 17.2671 34.365 17.3548C34.365 17.4838 34.1231 17.8164 33.6393 18.3527C33.1554 18.889 32.859 19.1579 32.7499 19.1594L32.7506 19.1587ZM35.3714 16.2418C35.2904 16.2373 35.2142 16.2026 35.1587 16.1451C34.1212 15.104 32.9054 14.2456 31.5656 13.6082C30.2934 13.0326 28.9047 12.7405 27.5012 12.7531C26.0954 12.7376 24.704 13.0299 23.4306 13.6082C22.0909 14.2484 20.8753 15.1084 19.8374 16.1505C19.7819 16.208 19.7058 16.2426 19.6247 16.2472C19.5151 16.2472 19.2171 15.9783 18.7306 15.4405C18.2441 14.9026 18.0006 14.57 18.0001 14.4426C17.998 14.3513 18.0313 14.2625 18.0934 14.1939C19.2828 12.8728 20.7519 11.8166 22.4004 11.0974C23.9973 10.3746 25.7378 10 27.4996 10C29.2615 10 31.002 10.3746 32.5989 11.0974C34.2465 11.8168 35.7148 12.873 36.9035 14.1939C36.9664 14.2617 37.0008 14.3499 37 14.4411C37 14.57 36.7565 14.9026 36.2695 15.4389C35.7825 15.9752 35.4834 16.2449 35.3722 16.248L35.3714 16.2418Z" fill="#E80013"/>
<path d="M18.4785 36.7314V35.1689C18.7617 35.4066 19.0693 35.5856 19.4014 35.7061C19.7334 35.8232 20.0687 35.8818 20.4072 35.8818C20.6058 35.8818 20.7783 35.8639 20.9248 35.8281C21.0745 35.7923 21.1982 35.7435 21.2959 35.6816C21.3968 35.6165 21.4717 35.5417 21.5205 35.457C21.5693 35.3691 21.5938 35.2747 21.5938 35.1738C21.5938 35.0371 21.5547 34.915 21.4766 34.8076C21.3984 34.7002 21.291 34.6009 21.1543 34.5098C21.0208 34.4186 20.8613 34.3307 20.6758 34.2461C20.4902 34.1615 20.29 34.0752 20.0752 33.9873C19.5283 33.7594 19.1198 33.4811 18.8496 33.1523C18.5827 32.8236 18.4492 32.4264 18.4492 31.9609C18.4492 31.5964 18.5225 31.2839 18.6689 31.0234C18.8154 30.7598 19.014 30.5433 19.2646 30.374C19.5186 30.2048 19.8115 30.0811 20.1436 30.0029C20.4756 29.9215 20.8271 29.8809 21.1982 29.8809C21.5628 29.8809 21.8851 29.9036 22.165 29.9492C22.4482 29.9915 22.7087 30.0583 22.9463 30.1494V31.6094C22.8291 31.528 22.7005 31.4564 22.5605 31.3945C22.4238 31.3327 22.2822 31.2822 22.1357 31.2432C21.9893 31.2008 21.8428 31.1699 21.6963 31.1504C21.5531 31.1309 21.4163 31.1211 21.2861 31.1211C21.1071 31.1211 20.9443 31.139 20.7979 31.1748C20.6514 31.2074 20.5277 31.2546 20.4268 31.3164C20.3258 31.3783 20.2477 31.4531 20.1924 31.541C20.137 31.6257 20.1094 31.7217 20.1094 31.8291C20.1094 31.9463 20.1403 32.0521 20.2021 32.1465C20.264 32.2376 20.3519 32.3255 20.4658 32.4102C20.5798 32.4915 20.7181 32.5729 20.8809 32.6543C21.0436 32.7324 21.2275 32.8138 21.4326 32.8984C21.7126 33.0156 21.9632 33.141 22.1846 33.2744C22.4092 33.4046 22.6012 33.5527 22.7607 33.7188C22.9202 33.8848 23.0423 34.0752 23.127 34.29C23.2116 34.5016 23.2539 34.749 23.2539 35.0322C23.2539 35.4229 23.179 35.7516 23.0293 36.0186C22.8828 36.2822 22.6826 36.4971 22.4287 36.6631C22.1748 36.8258 21.8786 36.943 21.54 37.0146C21.2048 37.0863 20.8499 37.1221 20.4756 37.1221C20.0915 37.1221 19.7253 37.0895 19.377 37.0244C19.0319 36.9593 18.7324 36.8617 18.4785 36.7314ZM27.3652 37.1221C26.3626 37.1221 25.5456 36.7965 24.9141 36.1455C24.2826 35.4912 23.9668 34.64 23.9668 33.5918C23.9668 32.485 24.2874 31.5898 24.9287 30.9062C25.57 30.2227 26.4196 29.8809 27.4775 29.8809C28.4769 29.8809 29.2842 30.208 29.8994 30.8623C30.5179 31.5166 30.8271 32.3792 30.8271 33.4502C30.8271 34.5505 30.5065 35.4375 29.8652 36.1113C29.2272 36.7852 28.3939 37.1221 27.3652 37.1221ZM27.4336 31.2383C26.8802 31.2383 26.4408 31.4466 26.1152 31.8633C25.7897 32.2767 25.627 32.8252 25.627 33.5088C25.627 34.2021 25.7897 34.7507 26.1152 35.1543C26.4408 35.5579 26.8672 35.7598 27.3945 35.7598C27.9382 35.7598 28.3695 35.5645 28.6885 35.1738C29.0075 34.7799 29.167 34.2347 29.167 33.5381C29.167 32.8122 29.0124 32.2474 28.7031 31.8438C28.3939 31.4401 27.9707 31.2383 27.4336 31.2383ZM31.6719 36.7314V35.1689C31.9551 35.4066 32.2627 35.5856 32.5947 35.7061C32.9268 35.8232 33.262 35.8818 33.6006 35.8818C33.7992 35.8818 33.9717 35.8639 34.1182 35.8281C34.2679 35.7923 34.3916 35.7435 34.4893 35.6816C34.5902 35.6165 34.665 35.5417 34.7139 35.457C34.7627 35.3691 34.7871 35.2747 34.7871 35.1738C34.7871 35.0371 34.748 34.915 34.6699 34.8076C34.5918 34.7002 34.4844 34.6009 34.3477 34.5098C34.2142 34.4186 34.0547 34.3307 33.8691 34.2461C33.6836 34.1615 33.4834 34.0752 33.2686 33.9873C32.7217 33.7594 32.3132 33.4811 32.043 33.1523C31.776 32.8236 31.6426 32.4264 31.6426 31.9609C31.6426 31.5964 31.7158 31.2839 31.8623 31.0234C32.0088 30.7598 32.2074 30.5433 32.458 30.374C32.7119 30.2048 33.0049 30.0811 33.3369 30.0029C33.6689 29.9215 34.0205 29.8809 34.3916 29.8809C34.7562 29.8809 35.0785 29.9036 35.3584 29.9492C35.6416 29.9915 35.902 30.0583 36.1396 30.1494V31.6094C36.0225 31.528 35.8939 31.4564 35.7539 31.3945C35.6172 31.3327 35.4756 31.2822 35.3291 31.2432C35.1826 31.2008 35.0361 31.1699 34.8896 31.1504C34.7464 31.1309 34.6097 31.1211 34.4795 31.1211C34.3005 31.1211 34.1377 31.139 33.9912 31.1748C33.8447 31.2074 33.721 31.2546 33.6201 31.3164C33.5192 31.3783 33.4411 31.4531 33.3857 31.541C33.3304 31.6257 33.3027 31.7217 33.3027 31.8291C33.3027 31.9463 33.3337 32.0521 33.3955 32.1465C33.4574 32.2376 33.5452 32.3255 33.6592 32.4102C33.7731 32.4915 33.9115 32.5729 34.0742 32.6543C34.237 32.7324 34.4209 32.8138 34.626 32.8984C34.9059 33.0156 35.1566 33.141 35.3779 33.2744C35.6025 33.4046 35.7946 33.5527 35.9541 33.7188C36.1136 33.8848 36.2357 34.0752 36.3203 34.29C36.4049 34.5016 36.4473 34.749 36.4473 35.0322C36.4473 35.4229 36.3724 35.7516 36.2227 36.0186C36.0762 36.2822 35.876 36.4971 35.6221 36.6631C35.3682 36.8258 35.0719 36.943 34.7334 37.0146C34.3981 37.0863 34.0433 37.1221 33.6689 37.1221C33.2848 37.1221 32.9186 37.0895 32.5703 37.0244C32.2253 36.9593 31.9258 36.8617 31.6719 36.7314Z" fill="#E80013"/>
<defs>
<filter id="filter0_d" x="0" y="0" width="54" height="54" filterUnits="userSpaceOnUse" color-interpolation-filters="sRGB">
<feFlood flood-opacity="0" result="BackgroundImageFix"/>
<feColorMatrix in="SourceAlpha" type="matrix" values="0 0 0 0 0 0 0 0 0 0 0 0 0 0 0 0 0 0 127 0" result="hardAlpha"/>
<feOffset dy="2"/>
<feGaussianBlur stdDeviation="1"/>
<feColorMatrix type="matrix" values="0 0 0 0 0 0 0 0 0 0 0 0 0 0 0 0 0 0 0.161 0"/>
<feBlend mode="normal" in2="BackgroundImageFix" result="effect1_dropShadow"/>
<feBlend mode="normal" in="SourceGraphic" in2="effect1_dropShadow" result="shape"/>
</filter>
</defs>
</svg>
