<svg xmlns="http://www.w3.org/2000/svg" xmlns:xlink="http://www.w3.org/1999/xlink" width="138.85" height="45.508" viewBox="0 0 138.85 45.508"><defs><linearGradient id="a" x1="0.5" x2="0.5" y2="1" gradientUnits="objectBoundingBox"><stop offset="0" stop-color="#c20a19"/><stop offset="1" stop-color="#ff0016"/></linearGradient><linearGradient id="b" x1="0.5" x2="0.5" y2="1" gradientUnits="objectBoundingBox"><stop offset="0"/><stop offset="1" stop-color="#505050"/></linearGradient></defs><g transform="translate(-3818.606 156.413)"><g transform="translate(3818.606 -156.413)"><path d="M-993.452-150.987c-.027,8.795-.571,7.949-.571,7.949a39.1,39.1,0,0,0-9.27-2.691v34.507q-1.821,1.166-3.888,2.243-2.068-1.072-3.888-2.243V-145.73a39.1,39.1,0,0,0-9.27,2.691s-.544.846-.571-7.949a.123.123,0,0,0,.024-.012,44.3,44.3,0,0,1,13.705-2.721A44.3,44.3,0,0,1-993.476-151,.136.136,0,0,0-993.452-150.987Z" transform="translate(1029.718 153.72)" fill="url(#a)"/><path d="M-1032.91-129.256v8.176l-16.077-5.455a36.463,36.463,0,0,1-1.268-12.59,50.331,50.331,0,0,1,7.111-3.466,46.712,46.712,0,0,0,.664,10.045Z" transform="translate(1050.362 145.918)" fill="url(#b)"/><path d="M-921.973-125.729l-7.117-2.778c1.462-3.589,1.343-11.8,1.256-14.513a50.014,50.014,0,0,1,7.443,3.595A36.983,36.983,0,0,1-921.973-125.729Z" transform="translate(965.357 146.22)" fill="url(#b)"/><path d="M-943.87-82.018A39.175,39.175,0,0,1-958-65.244v-9.794l2.691-2.691L-958-78.74V-87Z" transform="translate(985.621 106.952)" fill="url(#b)"/><path d="M-1026.073-65.777v9.946A39.042,39.042,0,0,1-1040.61-73.57l10.649,3.46Z" transform="translate(1043.526 97.539)" fill="url(#b)"/></g><g transform="translate(0 -1.436)"><path d="M5.265-2.323A8.243,8.243,0,0,1,1.982-3.916,3.044,3.044,0,0,1,.955-6.249a3.216,3.216,0,0,1,1.255-2.6A4.989,4.989,0,0,1,5.475-9.874a5.446,5.446,0,0,1,2.442.53A4.016,4.016,0,0,1,9.579-7.883a3.736,3.736,0,0,1,.589,2.036H8.406a2.431,2.431,0,0,0-.767-1.9A3.119,3.119,0,0,0,5.475-8.44a3.193,3.193,0,0,0-2.022.572,1.907,1.907,0,0,0-.726,1.587A1.716,1.716,0,0,0,3.416-4.9,6.762,6.762,0,0,0,5.762-3.876,10.888,10.888,0,0,1,8.355-2.848a3.935,3.935,0,0,1,1.388,1.31A3.344,3.344,0,0,1,10.2.225a3.106,3.106,0,0,1-1.26,2.588,5.372,5.372,0,0,1-3.369.972A6.249,6.249,0,0,1,3.01,3.261,4.3,4.3,0,0,1,1.179,1.823,3.509,3.509,0,0,1,.535-.25H2.3a2.29,2.29,0,0,0,.89,1.9,3.748,3.748,0,0,0,2.378.7,3.446,3.446,0,0,0,2.127-.566A1.839,1.839,0,0,0,8.433.243a1.805,1.805,0,0,0-.685-1.511A7.9,7.9,0,0,0,5.265-2.323ZM16.276,3.786a4.316,4.316,0,0,1-3.269-1.319,4.9,4.9,0,0,1-1.26-3.529v-.31A5.928,5.928,0,0,1,12.309-4a4.38,4.38,0,0,1,1.57-1.808,3.948,3.948,0,0,1,2.187-.653A3.7,3.7,0,0,1,19.061-5.19a5.5,5.5,0,0,1,1.068,3.634v.7H13.437a3.512,3.512,0,0,0,.854,2.36,2.683,2.683,0,0,0,2.077.9,2.942,2.942,0,0,0,1.516-.365,3.808,3.808,0,0,0,1.087-.968l1.032.8A4.149,4.149,0,0,1,16.276,3.786Zm-.21-8.857a2.253,2.253,0,0,0-1.717.744,3.617,3.617,0,0,0-.858,2.086H18.44v-.128a3.217,3.217,0,0,0-.694-2A2.121,2.121,0,0,0,16.066-5.071Zm5.615,3.652A5.806,5.806,0,0,1,22.75-5.094a3.416,3.416,0,0,1,2.83-1.365A3.4,3.4,0,0,1,28.4-5.181l.082-1.1h1.543V3.366A4.019,4.019,0,0,1,28.89,6.388a4.2,4.2,0,0,1-3.054,1.1,5.081,5.081,0,0,1-2.091-.457,3.6,3.6,0,0,1-1.561-1.251l.877-1.013a3.3,3.3,0,0,0,2.657,1.342,2.588,2.588,0,0,0,1.922-.694,2.652,2.652,0,0,0,.689-1.954V2.617a3.472,3.472,0,0,1-2.767,1.169,3.375,3.375,0,0,1-2.808-1.4A6.1,6.1,0,0,1,21.681-1.419Zm1.7.192A4.43,4.43,0,0,0,24.064,1.4a2.225,2.225,0,0,0,1.917.954A2.474,2.474,0,0,0,28.328.9V-3.61A2.5,2.5,0,0,0,26-5.025a2.245,2.245,0,0,0-1.927.959A4.825,4.825,0,0,0,23.38-1.227ZM38.673,2.626a3.588,3.588,0,0,1-2.894,1.16,3.071,3.071,0,0,1-2.406-.918A3.972,3.972,0,0,1,32.537.152V-6.276h1.689V.106q0,2.246,1.826,2.246A2.528,2.528,0,0,0,38.628.909V-6.276h1.689V3.6H38.71Zm8.984-7.387a5.062,5.062,0,0,0-.831-.064,2.226,2.226,0,0,0-2.255,1.415V3.6H42.882V-6.276h1.643l.027,1.141a2.63,2.63,0,0,1,2.356-1.324,1.726,1.726,0,0,1,.749.128ZM54.944,3.6a3.548,3.548,0,0,1-.237-1.041,3.769,3.769,0,0,1-2.812,1.223,3.487,3.487,0,0,1-2.4-.826,2.673,2.673,0,0,1-.936-2.1,2.793,2.793,0,0,1,1.173-2.4,5.532,5.532,0,0,1,3.3-.854h1.643v-.776a1.9,1.9,0,0,0-.53-1.411A2.128,2.128,0,0,0,52.588-5.1a2.463,2.463,0,0,0-1.516.457,1.345,1.345,0,0,0-.612,1.1h-1.7a2.331,2.331,0,0,1,.525-1.429,3.583,3.583,0,0,1,1.424-1.091,4.792,4.792,0,0,1,1.977-.4,3.906,3.906,0,0,1,2.675.854,3.08,3.08,0,0,1,1,2.351V1.293a5.559,5.559,0,0,0,.347,2.164V3.6Zm-2.8-1.287A2.969,2.969,0,0,0,53.647,1.9,2.485,2.485,0,0,0,54.679.836V-1.191H53.355q-3.1,0-3.1,1.817a1.538,1.538,0,0,0,.53,1.242A2.035,2.035,0,0,0,52.141,2.316Zm8.473-8.592.055,1.242a3.6,3.6,0,0,1,2.958-1.424q3.132,0,3.159,3.533V3.6H65.1V-2.934a2.274,2.274,0,0,0-.488-1.58,1.958,1.958,0,0,0-1.493-.511,2.438,2.438,0,0,0-1.443.438,2.976,2.976,0,0,0-.968,1.15V3.6H59.016V-6.276ZM73.3,2.407a2.433,2.433,0,0,0,1.58-.548,1.927,1.927,0,0,0,.749-1.37h1.6a3.063,3.063,0,0,1-.584,1.616A3.849,3.849,0,0,1,75.2,3.329a4.149,4.149,0,0,1-1.9.457,4.07,4.07,0,0,1-3.209-1.347A5.364,5.364,0,0,1,68.9-1.245v-.283a5.948,5.948,0,0,1,.53-2.566,4.033,4.033,0,0,1,1.52-1.744,4.318,4.318,0,0,1,2.342-.621,3.962,3.962,0,0,1,2.762,1A3.557,3.557,0,0,1,77.222-2.88h-1.6A2.328,2.328,0,0,0,74.9-4.455a2.258,2.258,0,0,0-1.612-.616,2.364,2.364,0,0,0-2,.927,4.352,4.352,0,0,0-.708,2.68v.32a4.266,4.266,0,0,0,.7,2.63A2.376,2.376,0,0,0,73.3,2.407Zm.274,1.278-.11.475a1.479,1.479,0,0,1,1.4,1.58,1.628,1.628,0,0,1-.73,1.4,3.485,3.485,0,0,1-2.036.516l-.064-.977a2.191,2.191,0,0,0,1.118-.237.74.74,0,0,0,.4-.667.66.66,0,0,0-.292-.593,2.933,2.933,0,0,0-1.187-.274l.292-1.223ZM85.22,3.6a3.549,3.549,0,0,1-.237-1.041,3.769,3.769,0,0,1-2.812,1.223,3.487,3.487,0,0,1-2.4-.826,2.673,2.673,0,0,1-.936-2.1,2.793,2.793,0,0,1,1.173-2.4,5.532,5.532,0,0,1,3.3-.854h1.643v-.776a1.9,1.9,0,0,0-.53-1.411A2.128,2.128,0,0,0,82.865-5.1a2.463,2.463,0,0,0-1.516.457,1.345,1.345,0,0,0-.612,1.1h-1.7a2.331,2.331,0,0,1,.525-1.429,3.583,3.583,0,0,1,1.424-1.091,4.792,4.792,0,0,1,1.977-.4,3.906,3.906,0,0,1,2.675.854,3.08,3.08,0,0,1,1,2.351V1.293a5.559,5.559,0,0,0,.347,2.164V3.6Zm-2.8-1.287A2.969,2.969,0,0,0,83.924,1.9,2.485,2.485,0,0,0,84.956.836V-1.191H83.632q-3.1,0-3.1,1.817a1.538,1.538,0,0,0,.53,1.242A2.035,2.035,0,0,0,82.417,2.316Z" transform="translate(3870.465 -117.126)" fill="#2e2e2e"/><path d="M3.768.239H9.93l3.555-13.22H18.91l1.4-5.214H3.294L1.9-12.981H7.323ZM27.785.608a10.878,10.878,0,0,0,10.85-10.824c0-4.714-3.74-8.348-9.164-8.348A10.878,10.878,0,0,0,18.62-7.74C18.62-3.027,22.36.608,27.785.608Zm.421-5.425a3.226,3.226,0,0,1-3.4-3.476c0-2.317,1.659-4.846,4.24-4.846a3.226,3.226,0,0,1,3.4,3.476C32.446-7.345,30.787-4.817,28.206-4.817ZM40.9.239h6.162l3.555-13.22h5.425l1.4-5.214H40.426l-1.4,5.214h5.425Zm9.375,0H56.99L58.6-2.237h6.452L65.364.239h6.557L69.13-18.327h-6.11ZM61.335-6.608l2.87-4.477.5,4.477ZM72.369.239H86.932l1.422-5.267h-8.4L83.483-18.2H77.32Z" transform="translate(3869.102 -131)" fill="#e80013"/></g></g></svg>