<svg xmlns="http://www.w3.org/2000/svg" width="44.499" height="44.776" viewBox="0 0 44.499 44.776">
  <g id="Grupo_915" data-name="Grupo 915" transform="translate(3700.368 23.5)">
    <g id="Grupo_913" data-name="Grupo 913" transform="translate(-3698 -22)">
      <path id="Caminho_105" data-name="Caminho 105" d="M96.425,207.107a19.95,19.95,0,0,0-17.082,30.245l-3.6,10.7,11.043-3.533a19.947,19.947,0,1,0,9.641-37.41" transform="translate(-75.741 -207.107)" fill="none" stroke="#fff" stroke-width="3" fill-rule="evenodd"/>
    </g>
    <g id="Grupo_914" data-name="Grupo 914" transform="translate(-3698 -21.185)">
      <path id="Caminho_105-2" data-name="Caminho 105" d="M105.776,231.586c-.5-.276-2.956-1.6-3.413-1.787s-.8-.287-1.158.211-1.376,1.609-1.685,1.935-.606.36-1.111.087a14.03,14.03,0,0,1-4-2.684,15.185,15.185,0,0,1-2.7-3.631c-.28-.519,0-.784.261-1.028.236-.222.53-.577.8-.864a3.675,3.675,0,0,0,.541-.832.945.945,0,0,0-.011-.893c-.12-.258-1.042-2.8-1.427-3.835s-.817-.882-1.115-.893-.635-.065-.973-.08a1.875,1.875,0,0,0-1.38.585,5.717,5.717,0,0,0-1.943,4.183,9.864,9.864,0,0,0,1.881,5.338c.243.352,3.312,5.781,8.407,8.014s5.127,1.554,6.064,1.5,3.058-1.122,3.526-2.291a4.256,4.256,0,0,0,.389-2.408c-.12-.222-.454-.359-.955-.632" transform="translate(-75.741 -207.107)" fill="#fff" fill-rule="evenodd"/>
    </g>
  </g>
</svg>
