<svg width="40" height="48" viewBox="0 0 40 48" fill="none" xmlns="http://www.w3.org/2000/svg">
<path d="M35.3077 47.0769C35.3077 47.0769 39.2308 47.0769 39.2308 43.1538C39.2308 39.2308 35.3077 27.4615 19.6154 27.4615C3.92308 27.4615 0 39.2308 0 43.1538C0 47.0769 3.92308 47.0769 3.92308 47.0769H35.3077ZM4.00938 43.1538C3.9804 43.1498 3.95161 43.1446 3.92308 43.1381C3.927 42.1025 4.57823 39.0974 6.90462 36.3905C9.07015 33.8522 12.8755 31.3846 19.6154 31.3846C26.3513 31.3846 30.1567 33.8561 32.3261 36.3905C34.6525 39.0974 35.2998 42.1064 35.3077 43.1381L35.2763 43.146C35.2581 43.1491 35.2397 43.1517 35.2214 43.1538H4.00938ZM19.6154 19.6154C21.6963 19.6154 23.692 18.7887 25.1635 17.3173C26.6349 15.8459 27.4615 13.8502 27.4615 11.7692C27.4615 9.6883 26.6349 7.6926 25.1635 6.22116C23.692 4.74972 21.6963 3.92308 19.6154 3.92308C17.5345 3.92308 15.5388 4.74972 14.0673 6.22116C12.5959 7.6926 11.7692 9.6883 11.7692 11.7692C11.7692 13.8502 12.5959 15.8459 14.0673 17.3173C15.5388 18.7887 17.5345 19.6154 19.6154 19.6154ZM31.3846 11.7692C31.3846 13.3148 31.0802 14.8452 30.4887 16.2731C29.8973 17.701 29.0304 18.9985 27.9375 20.0913C26.8446 21.1842 25.5472 22.0511 24.1193 22.6426C22.6914 23.234 21.1609 23.5385 19.6154 23.5385C18.0698 23.5385 16.5394 23.234 15.1115 22.6426C13.6836 22.0511 12.3862 21.1842 11.2933 20.0913C10.2004 18.9985 9.33349 17.701 8.74203 16.2731C8.15057 14.8452 7.84615 13.3148 7.84615 11.7692C7.84615 8.64784 9.08612 5.65429 11.2933 3.44713C13.5004 1.23997 16.494 0 19.6154 0C22.7368 0 25.7303 1.23997 27.9375 3.44713C30.1446 5.65429 31.3846 8.64784 31.3846 11.7692Z" fill="white"/>
</svg>
