<svg width="63" height="48" viewBox="0 0 63 48" fill="none" xmlns="http://www.w3.org/2000/svg">
<path d="M58.8461 47.0769C58.8461 47.0769 62.7692 47.0769 62.7692 43.1538C62.7692 39.2308 58.8461 27.4615 43.1538 27.4615C27.4615 27.4615 23.5385 39.2308 23.5385 43.1538C23.5385 47.0769 27.4615 47.0769 27.4615 47.0769H58.8461ZM27.5478 43.1538C27.5189 43.1498 27.4901 43.1446 27.4615 43.1381C27.4655 42.1025 28.1167 39.0974 30.4431 36.3905C32.6086 33.8522 36.414 31.3846 43.1538 31.3846C49.8898 31.3846 53.6951 33.8561 55.8646 36.3905C58.191 39.0974 58.8383 42.1064 58.8461 43.1381L58.8148 43.146C58.7965 43.1491 58.7782 43.1517 58.7598 43.1538H27.5478ZM43.1538 19.6154C45.2348 19.6154 47.2305 18.7887 48.7019 17.3173C50.1733 15.8459 51 13.8502 51 11.7692C51 9.6883 50.1733 7.6926 48.7019 6.22116C47.2305 4.74972 45.2348 3.92308 43.1538 3.92308C41.0729 3.92308 39.0772 4.74972 37.6058 6.22116C36.1343 7.6926 35.3077 9.6883 35.3077 11.7692C35.3077 13.8502 36.1343 15.8459 37.6058 17.3173C39.0772 18.7887 41.0729 19.6154 43.1538 19.6154ZM54.9231 11.7692C54.9231 13.3148 54.6186 14.8452 54.0272 16.2731C53.4357 17.701 52.5688 18.9985 51.4759 20.0913C50.3831 21.1842 49.0856 22.0511 47.6577 22.6426C46.2298 23.234 44.6994 23.5385 43.1538 23.5385C41.6083 23.5385 40.0779 23.234 38.65 22.6426C37.222 22.0511 35.9246 21.1842 34.8317 20.0913C33.7389 18.9985 32.8719 17.701 32.2805 16.2731C31.689 14.8452 31.3846 13.3148 31.3846 11.7692C31.3846 8.64784 32.6246 5.65429 34.8317 3.44713C37.0389 1.23997 40.0324 0 43.1538 0C46.2752 0 49.2688 1.23997 51.4759 3.44713C53.6831 5.65429 54.9231 8.64784 54.9231 11.7692ZM27.2105 28.56C25.6412 28.0658 24.0235 27.741 22.3851 27.591C21.4645 27.5035 20.5402 27.4602 19.6154 27.4615C3.92308 27.4615 0 39.2308 0 43.1538C0 45.7705 1.30638 47.0769 3.92308 47.0769H20.4628C19.8812 45.8522 19.5912 44.5094 19.6154 43.1538C19.6154 39.1915 21.0944 35.1429 23.8915 31.7612C24.8448 30.6078 25.9551 29.529 27.2105 28.56ZM19.3015 31.3846C16.9797 34.8733 15.7254 38.9633 15.6923 43.1538H3.92308C3.92308 42.1338 4.56646 39.1131 6.90461 36.3905C9.04269 33.8954 12.7578 31.4631 19.3015 31.3885V31.3846ZM5.88461 13.7308C5.88461 10.6094 7.12458 7.61582 9.33174 5.40867C11.5389 3.20151 14.5324 1.96154 17.6538 1.96154C20.7752 1.96154 23.7688 3.20151 25.9759 5.40867C28.1831 7.61582 29.4231 10.6094 29.4231 13.7308C29.4231 16.8522 28.1831 19.8457 25.9759 22.0529C23.7688 24.26 20.7752 25.5 17.6538 25.5C14.5324 25.5 11.5389 24.26 9.33174 22.0529C7.12458 19.8457 5.88461 16.8522 5.88461 13.7308ZM17.6538 5.88461C15.5729 5.88461 13.5772 6.71126 12.1058 8.1827C10.6343 9.65414 9.80769 11.6498 9.80769 13.7308C9.80769 15.8117 10.6343 17.8074 12.1058 19.2788C13.5772 20.7503 15.5729 21.5769 17.6538 21.5769C19.7348 21.5769 21.7305 20.7503 23.2019 19.2788C24.6734 17.8074 25.5 15.8117 25.5 13.7308C25.5 11.6498 24.6734 9.65414 23.2019 8.1827C21.7305 6.71126 19.7348 5.88461 17.6538 5.88461Z" fill="white"/>
</svg>
