<svg width="67" height="70" viewBox="0 0 67 70" fill="none" xmlns="http://www.w3.org/2000/svg">
<path d="M62.2501 11.5278H43.8057V16.1389H62.2501V64.5556H43.8057V69.1667H66.8612V16.1389C66.8612 14.9159 66.3754 13.7431 65.5107 12.8783C64.6459 12.0136 63.4731 11.5278 62.2501 11.5278Z" fill="white"/>
<path d="M36.6122 0H4.88778C3.59146 0 2.34823 0.514961 1.4316 1.4316C0.514961 2.34823 0 3.59146 0 4.88778V69.1667H41.5V4.88778C41.5 3.59146 40.985 2.34823 40.0684 1.4316C39.1518 0.514961 37.9085 0 36.6122 0ZM36.8889 64.5556H29.9722V57.6389H11.5278V64.5556H4.61111V4.88778C4.61111 4.85145 4.61827 4.81547 4.63217 4.7819C4.64607 4.74834 4.66645 4.71784 4.69214 4.69215C4.71784 4.66645 4.74834 4.64608 4.7819 4.63217C4.81547 4.61827 4.85145 4.61111 4.88778 4.61111H36.6122C36.6486 4.61111 36.6845 4.61827 36.7181 4.63217C36.7517 4.64608 36.7822 4.66645 36.8079 4.69215C36.8335 4.71784 36.8539 4.74834 36.8678 4.7819C36.8817 4.81547 36.8889 4.85145 36.8889 4.88778V64.5556Z" fill="white"/>
<path d="M9.22217 11.5278H13.8333V16.1389H9.22217V11.5278Z" fill="white"/>
<path d="M18.4443 11.5278H23.0554V16.1389H18.4443V11.5278Z" fill="white"/>
<path d="M27.6665 11.5278H32.2776V16.1389H27.6665V11.5278Z" fill="white"/>
<path d="M9.22217 23.0556H13.8333V27.6667H9.22217V23.0556Z" fill="white"/>
<path d="M18.4443 23.0556H23.0554V27.6667H18.4443V23.0556Z" fill="white"/>
<path d="M27.6665 23.0556H32.2776V27.6667H27.6665V23.0556Z" fill="white"/>
<path d="M9.22217 34.5833H13.8333V39.1944H9.22217V34.5833Z" fill="white"/>
<path d="M18.4443 34.5833H23.0554V39.1944H18.4443V34.5833Z" fill="white"/>
<path d="M27.6665 34.5833H32.2776V39.1944H27.6665V34.5833Z" fill="white"/>
<path d="M9.22217 46.1111H13.8333V50.7222H9.22217V46.1111Z" fill="white"/>
<path d="M18.4443 46.1111H23.0554V50.7222H18.4443V46.1111Z" fill="white"/>
<path d="M27.6665 46.1111H32.2776V50.7222H27.6665V46.1111Z" fill="white"/>
<path d="M43.8057 23.0556H48.4168V27.6667H43.8057V23.0556Z" fill="white"/>
<path d="M53.0278 23.0556H57.6389V27.6667H53.0278V23.0556Z" fill="white"/>
<path d="M43.8057 34.5833H48.4168V39.1944H43.8057V34.5833Z" fill="white"/>
<path d="M53.0278 34.5833H57.6389V39.1944H53.0278V34.5833Z" fill="white"/>
<path d="M43.8057 46.1111H48.4168V50.7222H43.8057V46.1111Z" fill="white"/>
<path d="M53.0278 46.1111H57.6389V50.7222H53.0278V46.1111Z" fill="white"/>
</svg>
