<svg width="67" height="57" viewBox="0 0 67 57" fill="none" xmlns="http://www.w3.org/2000/svg">
<path d="M66.3124 16.0313L61.6249 1.96876C61.4619 1.48365 61.1445 1.06525 60.7213 0.777469C60.2981 0.489685 59.7923 0.348337 59.2812 0.375014H7.71868C7.20759 0.348337 6.70182 0.489685 6.2786 0.777469C5.85539 1.06525 5.53801 1.48365 5.37493 1.96876L0.687434 16.0313C0.653668 16.2801 0.653668 16.5324 0.687434 16.7813V30.8438C0.687434 31.4654 0.934364 32.0615 1.3739 32.501C1.81344 32.9406 2.40958 33.1875 3.03118 33.1875H5.37493V56.625H10.0624V33.1875H24.1249V56.625H61.6249V33.1875H63.9687C64.5903 33.1875 65.1864 32.9406 65.626 32.501C66.0655 32.0615 66.3124 31.4654 66.3124 30.8438V16.7813C66.3462 16.5324 66.3462 16.2801 66.3124 16.0313ZM56.9374 51.9375H28.8124V33.1875H56.9374V51.9375ZM61.6249 28.5H52.2499V19.125H47.5624V28.5H35.8437V19.125H31.1562V28.5H19.4374V19.125H14.7499V28.5H5.37493V17.1563L9.40618 5.06251H57.5937L61.6249 17.1563V28.5Z" fill="white"/>
</svg>
