<svg width="32" height="30" viewBox="0 0 32 30" fill="none" xmlns="http://www.w3.org/2000/svg">
<path fill-rule="evenodd" clip-rule="evenodd" d="M30.5236 0.508505C30.6698 0.590703 30.7905 0.705486 30.8742 0.841971C30.958 0.978455 31.002 1.13212 31.002 1.28839V28.8137C31.002 29.057 30.8957 29.2904 30.7064 29.4625C30.5171 29.6346 30.2603 29.7312 29.9926 29.7312H23.9359C23.6682 29.7312 23.4115 29.6346 23.2222 29.4625C23.0328 29.2904 22.9265 29.057 22.9265 28.8137V26.0612H20.9076V28.8137C20.9076 29.057 20.8013 29.2904 20.6119 29.4625C20.4226 29.6346 20.1659 29.7312 19.8982 29.7312H1.72819C1.46047 29.7312 1.20372 29.6346 1.01441 29.4625C0.825102 29.2904 0.71875 29.057 0.71875 28.8137V18.7211C0.718911 18.5286 0.785672 18.341 0.909585 18.1849C1.0335 18.0288 1.20829 17.9121 1.40921 17.8513L12.8321 14.3904V8.62847C12.8321 8.45822 12.8842 8.29133 12.9826 8.14647C13.081 8.00161 13.2218 7.88449 13.3893 7.80822L29.5404 0.468134C29.6944 0.398047 29.8656 0.364962 30.0377 0.372029C30.2098 0.379095 30.3771 0.426078 30.5236 0.508505ZM12.8321 16.3246L2.73764 19.3817V27.8962H12.8321V16.3246ZM14.851 27.8962H18.8887V25.1437C18.8887 24.9003 18.9951 24.667 19.1844 24.4949C19.3737 24.3228 19.6304 24.2262 19.8982 24.2262H23.9359C24.2037 24.2262 24.4604 24.3228 24.6497 24.4949C24.839 24.667 24.9454 24.9003 24.9454 25.1437V27.8962H28.9832V2.77292L14.851 9.19549V27.8962Z" fill="white"/>
<path d="M4.75586 20.5563H6.77475V22.3913H4.75586V20.5563ZM8.79363 20.5563H10.8125V22.3913H8.79363V20.5563ZM4.75586 24.2264H6.77475V26.0614H4.75586V24.2264ZM8.79363 24.2264H10.8125V26.0614H8.79363V24.2264ZM16.8692 16.8863H18.8881V18.7213H16.8692V16.8863ZM20.9069 16.8863H22.9258V18.7213H20.9069V16.8863ZM16.8692 20.5563H18.8881V22.3913H16.8692V20.5563ZM20.9069 20.5563H22.9258V22.3913H20.9069V20.5563ZM24.9447 16.8863H26.9636V18.7213H24.9447V16.8863ZM24.9447 20.5563H26.9636V22.3913H24.9447V20.5563ZM16.8692 13.2162H18.8881V15.0513H16.8692V13.2162ZM20.9069 13.2162H22.9258V15.0513H20.9069V13.2162ZM24.9447 13.2162H26.9636V15.0513H24.9447V13.2162ZM16.8692 9.54619H18.8881V11.3812H16.8692V9.54619ZM20.9069 9.54619H22.9258V11.3812H20.9069V9.54619ZM24.9447 9.54619H26.9636V11.3812H24.9447V9.54619ZM24.9447 5.87614H26.9636V7.71117H24.9447V5.87614Z" fill="white"/>
</svg>
