<svg width="57" height="58" viewBox="0 0 57 58" fill="none" xmlns="http://www.w3.org/2000/svg">
<path d="M38.4375 0.8125V14.8268L30.75 19.3906V11.6237L26.9062 14.0248L17.9375 19.3906V11.6237L14.0938 14.0248L1.28125 21.7122L0 22.4323V57.1875H56.375V0.8125H38.4375ZM43.5625 5.9375H51.25V52.0625H5.125V25.2357L12.8125 20.6719V28.4388L16.6562 26.0378L25.625 20.6719V28.4388L29.4688 26.0378L42.2812 18.3503L43.5625 17.6302V5.9375ZM10.25 31.5625V36.6875H15.375V31.5625H10.25ZM20.5 31.5625V36.6875H25.625V31.5625H20.5ZM30.75 31.5625V36.6875H35.875V31.5625H30.75ZM41 31.5625V36.6875H46.125V31.5625H41ZM10.25 41.8125V46.9375H15.375V41.8125H10.25ZM20.5 41.8125V46.9375H25.625V41.8125H20.5ZM30.75 41.8125V46.9375H35.875V41.8125H30.75ZM41 41.8125V46.9375H46.125V41.8125H41Z" fill="white"/>
</svg>
