<svg width="103" height="58" viewBox="0 0 103 58" fill="none" xmlns="http://www.w3.org/2000/svg">
<path d="M70.2274 57.0769C70.2274 57.0769 74.9092 57.0769 74.9092 52.3951C74.9092 47.7133 70.2274 33.6678 51.5001 33.6678C32.7728 33.6678 28.0909 47.7133 28.0909 52.3951C28.0909 57.0769 32.7728 57.0769 32.7728 57.0769H70.2274ZM32.8758 52.3951C32.8412 52.3903 32.8068 52.3841 32.7728 52.3764C32.7774 51.1404 33.5546 47.5541 36.331 44.3236C38.9153 41.2945 43.4567 38.3496 51.5001 38.3496C59.5388 38.3496 64.0801 41.2992 66.6692 44.3236C69.4455 47.5541 70.218 51.145 70.2274 52.3764L70.1899 52.3857C70.1681 52.3894 70.1463 52.3925 70.1244 52.3951H32.8758ZM51.5001 24.3041C53.9835 24.3041 56.3651 23.3176 58.1212 21.5616C59.8772 19.8056 60.8637 17.4239 60.8637 14.9405C60.8637 12.4571 59.8772 10.0754 58.1212 8.31939C56.3651 6.56337 53.9835 5.57684 51.5001 5.57684C49.0167 5.57684 46.635 6.56337 44.879 8.31939C43.1229 10.0754 42.1364 12.4571 42.1364 14.9405C42.1364 17.4239 43.1229 19.8056 44.879 21.5616C46.635 23.3176 49.0167 24.3041 51.5001 24.3041ZM65.5455 14.9405C65.5455 16.785 65.1822 18.6114 64.4764 20.3155C63.7705 22.0195 62.736 23.5679 61.4317 24.8721C60.1275 26.1764 58.5791 27.211 56.875 27.9168C55.171 28.6227 53.3445 28.986 51.5001 28.986C49.6556 28.986 47.8292 28.6227 46.1251 27.9168C44.421 27.211 42.8727 26.1764 41.5684 24.8721C40.2642 23.5679 39.2296 22.0195 38.5237 20.3155C37.8179 18.6114 37.4546 16.785 37.4546 14.9405C37.4546 11.2154 38.9344 7.64288 41.5684 5.00884C44.2024 2.37481 47.775 0.89502 51.5001 0.89502C55.2252 0.89502 58.7977 2.37481 61.4317 5.00884C64.0658 7.64288 65.5455 11.2154 65.5455 14.9405ZM32.4731 34.9787C30.6003 34.389 28.6698 34.0013 26.7145 33.8223C25.6158 33.7178 24.5127 33.6663 23.4091 33.6678C4.68182 33.6678 0 47.7133 0 52.3951C0 55.5179 1.55905 57.0769 4.68182 57.0769H24.4204C23.7263 55.6153 23.3802 54.0128 23.4091 52.3951C23.4091 47.6664 25.1742 42.8348 28.5123 38.7991C29.65 37.4226 30.9749 36.1351 32.4731 34.9787ZM23.0346 38.3496C20.2637 42.513 18.7668 47.394 18.7273 52.3951H4.68182C4.68182 51.1778 5.44964 47.5728 8.24001 44.3236C10.7916 41.346 15.2253 38.4432 23.0346 38.3543V38.3496ZM7.02274 17.2814C7.02274 13.5563 8.50252 9.98379 11.1366 7.34976C13.7706 4.71572 17.3431 3.23593 21.0682 3.23593C24.7933 3.23593 28.3658 4.71572 30.9999 7.34976C33.6339 9.98379 35.1137 13.5563 35.1137 17.2814C35.1137 21.0065 33.6339 24.579 30.9999 27.2131C28.3658 29.8471 24.7933 31.3269 21.0682 31.3269C17.3431 31.3269 13.7706 29.8471 11.1366 27.2131C8.50252 24.579 7.02274 21.0065 7.02274 17.2814ZM21.0682 7.91776C18.5848 7.91776 16.2031 8.90428 14.4471 10.6603C12.6911 12.4163 11.7046 14.798 11.7046 17.2814C11.7046 19.7648 12.6911 22.1465 14.4471 23.9025C16.2031 25.6585 18.5848 26.6451 21.0682 26.6451C23.5516 26.6451 25.9333 25.6585 27.6893 23.9025C29.4453 22.1465 30.4319 19.7648 30.4319 17.2814C30.4319 14.798 29.4453 12.4163 27.6893 10.6603C25.9333 8.90428 23.5516 7.91776 21.0682 7.91776Z" fill="white"/>
<path d="M32.7726 57.0769C32.7726 57.0769 28.0908 57.0769 28.0908 52.3951C28.0908 47.7133 32.7726 33.6678 51.4999 33.6678C70.2272 33.6678 74.9091 47.7133 74.9091 52.3951C74.9091 57.0769 70.2272 57.0769 70.2272 57.0769H32.7726ZM70.1242 52.3951C70.1588 52.3903 70.1932 52.3841 70.2272 52.3764C70.2226 51.1404 69.4454 47.5541 66.669 44.3236C64.0847 41.2945 59.5433 38.3496 51.4999 38.3496C43.4612 38.3496 38.9199 41.2992 36.3308 44.3236C33.5545 47.5541 32.782 51.145 32.7726 52.3764L32.8101 52.3857C32.8319 52.3894 32.8537 52.3925 32.8756 52.3951H70.1242ZM51.4999 24.3041C49.0165 24.3041 46.6349 23.3176 44.8788 21.5616C43.1228 19.8056 42.1363 17.4239 42.1363 14.9405C42.1363 12.4571 43.1228 10.0754 44.8788 8.31939C46.6349 6.56337 49.0165 5.57684 51.4999 5.57684C53.9833 5.57684 56.365 6.56337 58.121 8.31939C59.8771 10.0754 60.8636 12.4571 60.8636 14.9405C60.8636 17.4239 59.8771 19.8056 58.121 21.5616C56.365 23.3176 53.9833 24.3041 51.4999 24.3041ZM37.4545 14.9405C37.4545 16.785 37.8178 18.6114 38.5236 20.3155C39.2295 22.0195 40.264 23.5679 41.5683 24.8721C42.8725 26.1764 44.4209 27.211 46.125 27.9168C47.829 28.6227 49.6555 28.986 51.4999 28.986C53.3444 28.986 55.1708 28.6227 56.8749 27.9168C58.579 27.211 60.1273 26.1764 61.4316 24.8721C62.7358 23.5679 63.7704 22.0195 64.4763 20.3155C65.1821 18.6114 65.5454 16.785 65.5454 14.9405C65.5454 11.2154 64.0656 7.64288 61.4316 5.00884C58.7976 2.37481 55.225 0.89502 51.4999 0.89502C47.7748 0.89502 44.2023 2.37481 41.5683 5.00884C38.9342 7.64288 37.4545 11.2154 37.4545 14.9405ZM70.5269 34.9787C72.3997 34.389 74.3302 34.0013 76.2855 33.8223C77.3842 33.7178 78.4873 33.6663 79.5909 33.6678C98.3182 33.6678 103 47.7133 103 52.3951C103 55.5179 101.441 57.0769 98.3182 57.0769H78.5796C79.2737 55.6153 79.6198 54.0128 79.5909 52.3951C79.5909 47.6664 77.8258 42.8348 74.4877 38.7991C73.35 37.4226 72.0251 36.1351 70.5269 34.9787ZM79.9654 38.3496C82.7363 42.513 84.2332 47.394 84.2727 52.3951H98.3182C98.3182 51.1778 97.5504 47.5728 94.76 44.3236C92.2084 41.346 87.7747 38.4432 79.9654 38.3543V38.3496ZM95.9773 17.2814C95.9773 13.5563 94.4975 9.98379 91.8634 7.34976C89.2294 4.71572 85.6569 3.23593 81.9318 3.23593C78.2067 3.23593 74.6342 4.71572 72.0001 7.34976C69.3661 9.98379 67.8863 13.5563 67.8863 17.2814C67.8863 21.0065 69.3661 24.579 72.0001 27.2131C74.6342 29.8471 78.2067 31.3269 81.9318 31.3269C85.6569 31.3269 89.2294 29.8471 91.8634 27.2131C94.4975 24.579 95.9773 21.0065 95.9773 17.2814ZM81.9318 7.91776C84.4152 7.91776 86.7969 8.90428 88.5529 10.6603C90.3089 12.4163 91.2954 14.798 91.2954 17.2814C91.2954 19.7648 90.3089 22.1465 88.5529 23.9025C86.7969 25.6585 84.4152 26.6451 81.9318 26.6451C79.4484 26.6451 77.0667 25.6585 75.3107 23.9025C73.5547 22.1465 72.5681 19.7648 72.5681 17.2814C72.5681 14.798 73.5547 12.4163 75.3107 10.6603C77.0667 8.90428 79.4484 7.91776 81.9318 7.91776Z" fill="white"/>
</svg>
