<svg width="56" height="66" viewBox="0 0 56 66" fill="none" xmlns="http://www.w3.org/2000/svg">
<path d="M28.1189 61.6568C27.1281 64.1148 24.3682 66.752 20.8252 65.7707C18.0417 64.997 16.2347 63.3127 15.1968 61.0671C14.2344 58.9771 13.9985 56.5191 13.9513 54.1697C13.9041 51.6504 14.4325 48.6215 15.0506 45.9748C15.3265 44.8032 15.6333 43.6391 15.9705 42.4837L9.4364 42.4837C7.96984 42.4838 6.52344 42.1421 5.21201 41.4856C3.90058 40.8291 2.76023 39.876 1.88146 38.7019C1.0027 37.5278 0.409728 36.165 0.149608 34.7217C-0.110517 33.2784 -0.0306176 31.7943 0.382949 30.3872L6.81802 8.46838C7.26001 6.96467 7.99728 5.56414 8.98673 4.34862C9.97618 3.1331 11.198 2.12698 12.5807 1.38906C13.9634 0.651127 15.4794 0.196194 17.04 0.0508389C18.6005 -0.0945162 20.1744 0.0726134 21.6696 0.542477L46.9382 8.47781C48.3047 8.90671 49.5556 9.64107 50.5962 10.6252C51.6367 11.6094 52.4396 12.8175 52.9439 14.158L55.3972 20.6875C56.1779 22.7655 56.201 25.0523 55.4624 27.1456C54.7237 29.239 53.2707 31.0049 51.3587 32.1328L42.527 37.346C41.637 38.0499 40.8113 38.8314 40.0596 39.6813C38.4367 41.5118 36.2052 44.5642 33.9642 49.3245C32.9971 51.3814 32.1856 53.0044 31.4496 54.4669C30.256 56.8446 29.2559 58.8261 28.1189 61.6568ZM39.9888 33.3689C40.0153 33.3527 40.042 33.337 40.069 33.3217L48.9621 28.0661C49.9181 27.5021 50.6446 26.6192 51.0139 25.5725C51.3832 24.5258 51.3717 23.3824 50.9813 22.3434L48.5281 15.814C48.2757 15.1435 47.8739 14.5392 47.3532 14.0471C46.8325 13.5551 46.2065 13.188 45.5228 12.9739L20.2637 5.03854C19.3659 4.75584 18.4208 4.65509 17.4835 4.74218C16.5463 4.82927 15.6359 5.10246 14.8055 5.54575C13.9752 5.98903 13.2416 6.59351 12.6478 7.3238C12.0539 8.05408 11.6118 8.8955 11.3471 9.79879L4.91675 31.7177C4.70991 32.4214 4.67 33.1636 4.80018 33.8855C4.93037 34.6073 5.22706 35.2888 5.66671 35.8759C6.10636 36.463 6.67685 36.9396 7.33286 37.2676C7.98888 37.5957 8.71236 37.7663 9.44583 37.7659L19.1928 37.7659C19.5702 37.7661 19.942 37.8569 20.2771 38.0306C20.6122 38.2043 20.9007 38.4558 21.1184 38.7641C21.3361 39.0724 21.4766 39.4284 21.5282 39.8023C21.5798 40.1761 21.5409 40.5569 21.4149 40.9127C20.9431 42.2431 20.226 44.5454 19.641 47.0505C19.0465 49.5887 18.6267 52.1552 18.6644 54.08C18.7116 56.2927 18.9428 57.9297 19.4806 59.095C19.9429 60.1046 20.6647 60.8312 22.0848 61.2228C22.2877 61.2794 22.5283 61.2652 22.8397 61.0624C23.2461 60.7721 23.5579 60.3684 23.736 59.9018C24.8226 57.2515 26.0269 54.651 27.3451 52.108C28.0764 50.6549 28.8454 49.1169 29.6899 47.3194C32.1148 42.1629 34.5964 38.7283 36.5307 36.5534C37.4931 35.4683 38.314 34.6946 38.9179 34.1804C39.2246 33.9196 39.5426 33.6725 39.8709 33.4397L39.9464 33.3925L39.97 33.3736L39.9841 33.3689L39.9888 33.3689Z" fill="white"/>
</svg>
