<svg width="56" height="66" viewBox="0 0 56 66" fill="none" xmlns="http://www.w3.org/2000/svg">
<path d="M27.8811 4.32416C28.8719 1.86618 31.6318 -0.771063 35.1748 0.210238C37.9583 0.983957 39.7653 2.66821 40.8032 4.91388C41.7656 7.00386 42.0015 9.46183 42.0487 11.8113C42.0959 14.3306 41.5675 17.3594 40.9494 20.0061C40.6735 21.1777 40.3667 22.3418 40.0295 23.4973H46.5636C48.0302 23.4972 49.4766 23.8389 50.788 24.4953C52.0994 25.1518 53.2398 26.1049 54.1185 27.2791C54.9973 28.4532 55.5903 29.816 55.8504 31.2593C56.1105 32.7026 56.0306 34.1867 55.6171 35.5937L49.182 57.5126C48.74 59.0163 48.0027 60.4168 47.0133 61.6323C46.0238 62.8479 44.802 63.854 43.4193 64.5919C42.0366 65.3298 40.5206 65.7848 38.96 65.9301C37.3995 66.0755 35.8256 65.9083 34.3304 65.4385L9.06185 57.5031C7.69533 57.0742 6.44438 56.3399 5.40382 55.3557C4.36326 54.3716 3.5604 53.1634 3.05609 51.8229L0.602841 45.2935C-0.177899 43.2155 -0.200982 40.9287 0.537649 38.8353C1.27628 36.742 2.72933 34.9761 4.64127 33.8481L13.473 28.635C14.363 27.9311 15.1887 27.1496 15.9404 26.2996C17.5633 24.4691 19.7948 21.4167 22.0358 16.6565C23.0029 14.5995 23.8144 12.9766 24.5504 11.5141C25.744 9.13631 26.7441 7.15483 27.8811 4.32416ZM16.0112 32.6121C15.9847 32.6283 15.958 32.644 15.931 32.6592L7.03791 37.9149C6.08194 38.4788 5.35542 39.3618 4.9861 40.4085C4.61679 41.4551 4.62833 42.5985 5.0187 43.6375L7.47195 50.167C7.72435 50.8375 8.12614 51.4417 8.64684 51.9338C9.16755 52.4259 9.79349 52.7929 10.4772 53.0071L35.7363 60.9424C36.6341 61.2251 37.5793 61.3259 38.5165 61.2388C39.4537 61.1517 40.3641 60.8785 41.1945 60.4352C42.0248 59.9919 42.7584 59.3874 43.3522 58.6572C43.9461 57.9269 44.3882 57.0854 44.6529 56.1822L51.0833 34.2633C51.2901 33.5596 51.33 32.8173 51.1998 32.0955C51.0696 31.3737 50.7729 30.6921 50.3333 30.105C49.8936 29.5179 49.3232 29.0414 48.6671 28.7133C48.0111 28.3852 47.2876 28.2146 46.5542 28.2151H36.8072C36.4298 28.2149 36.058 28.1241 35.7229 27.9504C35.3878 27.7767 35.0993 27.5251 34.8816 27.2169C34.664 26.9086 34.5234 26.5525 34.4718 26.1787C34.4202 25.8048 34.4591 25.424 34.5851 25.0683C35.0569 23.7379 35.774 21.4356 36.359 18.9305C36.9535 16.3923 37.3733 13.8258 37.3356 11.9009C37.2884 9.68829 37.0572 8.05121 36.5194 6.88592C36.0571 5.87631 35.3353 5.14977 33.9152 4.75819C33.7123 4.70158 33.4717 4.71573 33.1603 4.9186C32.7539 5.20884 32.4421 5.61255 32.264 6.07918C31.1774 8.72945 29.9731 11.33 28.6549 13.873C27.9236 15.3261 27.1546 16.8641 26.3101 18.6615C23.8852 23.8181 21.4036 27.2526 19.4693 29.4275C18.5069 30.5126 17.686 31.2864 17.0821 31.8006C16.7754 32.0613 16.4575 32.3084 16.1291 32.5413L16.0536 32.5885L16.03 32.6073L16.0159 32.6121H16.0112Z" fill="white"/>
</svg>
